# xmcd
#
# Track frame offsets: 
#        150
#        2125
#        15940
#        33368
#        50022
#        62630
#        76504
#        90423
#        105089
#        115608
#        135128
#        136580
#        150101
#        160820
#        171561
#        186815
#        188362
#
# Disc length: 2671 seconds
#
# Revision: 0
# Processed by: cddbd v1.5.2PL0 Copyright (c) Steve Scherf et al.
# Submitted via: ExactAudioCopy v0.99pb3
#
DISCID=aa0a6d11
DTITLE=Pilgrim - Harbour Girl
DYEAR=2009
DGENRE=pop
TTITLE0=Introduction
TTITLE1=Where The Soul Of Man Never Dies
TTITLE2=Hidden Highway
TTITLE3=Ring Of Fire
TTITLE4=Money Is The Root Of All Evil
TTITLE5=You Can't Do Wrong And Get By
TTITLE6=Would You Lay With Me (In A Field Of Stone)
TTITLE7=Aunt Maria
TTITLE8=Turn The Cards Slowly
TTITLE9=Sailing
TTITLE10=Interlude 1
TTITLE11=Harbour Girl
TTITLE12=Hello Trouble
TTITLE13=I'm Working On A Building
TTITLE14=A Town Like This
TTITLE15=Interlude 2
TTITLE16=Broadminded
EXTD=
EXTT0=
EXTT1=
EXTT2=
EXTT3=
EXTT4=
EXTT5=
EXTT6=
EXTT7=
EXTT8=
EXTT9=
EXTT10=
EXTT11=
EXTT12=
EXTT13=
EXTT14=
EXTT15=
EXTT16=
PLAYORDER=
